<svg width="30" height="30" viewBox="0 0 30 30" fill="none" xmlns="http://www.w3.org/2000/svg">
<path d="M28.3838 14.1165L19.6338 5.36652C19.398 5.13882 19.0822 5.01282 18.7545 5.01567C18.4268 5.01852 18.1132 5.14998 17.8815 5.38174C17.6497 5.6135 17.5183 5.92702 17.5154 6.25476C17.5126 6.58251 17.6386 6.89826 17.8663 7.13401L24.4825 13.7503H2.5C2.16848 13.7503 1.85054 13.882 1.61612 14.1164C1.3817 14.3508 1.25 14.6687 1.25 15.0003C1.25 15.3318 1.3817 15.6497 1.61612 15.8841C1.85054 16.1186 2.16848 16.2503 2.5 16.2503H24.4825L17.8663 22.8665C17.7469 22.9818 17.6516 23.1198 17.5861 23.2723C17.5206 23.4248 17.4861 23.5888 17.4847 23.7548C17.4832 23.9207 17.5149 24.0853 17.5777 24.239C17.6406 24.3926 17.7334 24.5321 17.8508 24.6495C17.9681 24.7669 18.1077 24.8597 18.2613 24.9225C18.4149 24.9854 18.5795 25.017 18.7455 25.0156C18.9115 25.0141 19.0755 24.9797 19.228 24.9141C19.3805 24.8486 19.5184 24.7534 19.6338 24.634L28.3838 15.884C28.6181 15.6496 28.7497 15.3317 28.7497 15.0003C28.7497 14.6688 28.6181 14.3509 28.3838 14.1165Z" fill="url(#paint0_linear_24812_633)"/>
<defs>
<linearGradient id="paint0_linear_24812_633" x1="14.9999" y1="25.0156" x2="14.9999" y2="5.01562" gradientUnits="userSpaceOnUse">
<stop stop-color="#000E38"/>
<stop offset="1" stop-color="#3F186A"/>
</linearGradient>
</defs>
</svg>
