<svg width="30" height="30" viewBox="0 0 30 30" fill="none" xmlns="http://www.w3.org/2000/svg">
<path d="M1.61625 14.1165L10.3662 5.36652C10.602 5.13882 10.9178 5.01282 11.2455 5.01567C11.5732 5.01852 11.8868 5.14998 12.1185 5.38174C12.3503 5.6135 12.4817 5.92702 12.4846 6.25476C12.4874 6.58251 12.3614 6.89826 12.1337 7.13401L5.5175 13.7503H27.5C27.8315 13.7503 28.1495 13.882 28.3839 14.1164C28.6183 14.3508 28.75 14.6687 28.75 15.0003C28.75 15.3318 28.6183 15.6497 28.3839 15.8841C28.1495 16.1186 27.8315 16.2503 27.5 16.2503H5.5175L12.1337 22.8665C12.2531 22.9818 12.3484 23.1198 12.4139 23.2723C12.4794 23.4248 12.5139 23.5888 12.5153 23.7548C12.5168 23.9207 12.4851 24.0853 12.4223 24.239C12.3594 24.3926 12.2666 24.5321 12.1492 24.6495C12.0319 24.7669 11.8923 24.8597 11.7387 24.9225C11.5851 24.9854 11.4205 25.017 11.2545 25.0156C11.0885 25.0141 10.9245 24.9797 10.772 24.9141C10.6195 24.8486 10.4816 24.7534 10.3662 24.634L1.61625 15.884C1.38191 15.6496 1.25027 15.3317 1.25027 15.0003C1.25027 14.6688 1.38191 14.3509 1.61625 14.1165Z" fill="white"/>
</svg>
